<mxfile host="app.diagrams.net" agent="Mozilla/5.0 (Windows NT 10.0; Win64; x64) AppleWebKit/537.36 (KHTML, like Gecko) Chrome/130.0.0.0 Safari/537.36" version="24.8.3">
  <diagram name="Trang-1" id="ATA3lsROrStY1Cv1PrL_">
    <mxGraphModel dx="1434" dy="1941" grid="1" gridSize="10" guides="1" tooltips="1" connect="1" arrows="1" fold="1" page="1" pageScale="1" pageWidth="827" pageHeight="1169" math="0" shadow="0">
      <root>
        <mxCell id="0" />
        <mxCell id="1" parent="0" />
        <mxCell id="6FXUCEme7YuGV_fSvKKb-3" value="${nickName}/queue/mesages" style="shape=parallelogram;perimeter=parallelogramPerimeter;whiteSpace=wrap;html=1;fixedSize=1;" vertex="1" parent="1">
          <mxGeometry x="240" y="-490" width="216" height="50" as="geometry" />
        </mxCell>
        <mxCell id="6FXUCEme7YuGV_fSvKKb-4" value="" style="endArrow=classic;startArrow=classic;html=1;rounded=0;exitX=1;exitY=0.5;exitDx=0;exitDy=0;entryX=0;entryY=0.5;entryDx=0;entryDy=0;" edge="1" parent="1" source="6FXUCEme7YuGV_fSvKKb-3" target="6FXUCEme7YuGV_fSvKKb-6">
          <mxGeometry width="50" height="50" relative="1" as="geometry">
            <mxPoint x="446" y="-465.42" as="sourcePoint" />
            <mxPoint x="600" y="-465.42" as="targetPoint" />
          </mxGeometry>
        </mxCell>
        <mxCell id="6FXUCEme7YuGV_fSvKKb-5" value="Subscribe" style="edgeLabel;html=1;align=center;verticalAlign=middle;resizable=0;points=[];" vertex="1" connectable="0" parent="6FXUCEme7YuGV_fSvKKb-4">
          <mxGeometry x="-0.0173" y="8" relative="1" as="geometry">
            <mxPoint as="offset" />
          </mxGeometry>
        </mxCell>
        <mxCell id="6FXUCEme7YuGV_fSvKKb-6" value="ChatRoom" style="rounded=1;whiteSpace=wrap;html=1;" vertex="1" parent="1">
          <mxGeometry x="560" y="-495" width="120" height="60" as="geometry" />
        </mxCell>
        <mxCell id="6FXUCEme7YuGV_fSvKKb-7" value="User1" style="shape=umlActor;verticalLabelPosition=bottom;verticalAlign=top;html=1;outlineConnect=0;" vertex="1" parent="1">
          <mxGeometry x="500" y="-580" width="30" height="60" as="geometry" />
        </mxCell>
        <mxCell id="6FXUCEme7YuGV_fSvKKb-10" value="User2" style="shape=umlActor;verticalLabelPosition=bottom;verticalAlign=top;html=1;outlineConnect=0;" vertex="1" parent="1">
          <mxGeometry x="150" y="-560" width="30" height="60" as="geometry" />
        </mxCell>
        <mxCell id="6FXUCEme7YuGV_fSvKKb-14" value="" style="endArrow=none;dashed=1;html=1;rounded=0;entryX=0;entryY=0.5;entryDx=0;entryDy=0;" edge="1" parent="1" source="6FXUCEme7YuGV_fSvKKb-10" target="6FXUCEme7YuGV_fSvKKb-3">
          <mxGeometry width="50" height="50" relative="1" as="geometry">
            <mxPoint x="510" y="-330" as="sourcePoint" />
            <mxPoint x="560" y="-380" as="targetPoint" />
          </mxGeometry>
        </mxCell>
        <mxCell id="6FXUCEme7YuGV_fSvKKb-17" value="chatId: user1_user2&lt;div&gt;senderId: user1&lt;/div&gt;&lt;div&gt;recipientId: uesr2&lt;/div&gt;" style="rounded=1;whiteSpace=wrap;html=1;" vertex="1" parent="1">
          <mxGeometry x="420" y="-370" width="140" height="80" as="geometry" />
        </mxCell>
        <mxCell id="6FXUCEme7YuGV_fSvKKb-23" value="chatId: user1_user2&lt;div&gt;senderId: user2&lt;/div&gt;&lt;div&gt;recipientId: uesr1&lt;/div&gt;" style="rounded=1;whiteSpace=wrap;html=1;" vertex="1" parent="1">
          <mxGeometry x="600" y="-370" width="140" height="80" as="geometry" />
        </mxCell>
        <mxCell id="6FXUCEme7YuGV_fSvKKb-24" value="" style="endArrow=classic;html=1;rounded=0;exitX=1;exitY=0.5;exitDx=0;exitDy=0;" edge="1" parent="1" source="6FXUCEme7YuGV_fSvKKb-6" target="6FXUCEme7YuGV_fSvKKb-25">
          <mxGeometry width="50" height="50" relative="1" as="geometry">
            <mxPoint x="510" y="-490" as="sourcePoint" />
            <mxPoint x="840" y="-470" as="targetPoint" />
          </mxGeometry>
        </mxCell>
        <mxCell id="6FXUCEme7YuGV_fSvKKb-35" value="SendMessage" style="edgeLabel;html=1;align=center;verticalAlign=middle;resizable=0;points=[];" vertex="1" connectable="0" parent="6FXUCEme7YuGV_fSvKKb-24">
          <mxGeometry x="-0.25" y="-1" relative="1" as="geometry">
            <mxPoint x="15" y="-16" as="offset" />
          </mxGeometry>
        </mxCell>
        <mxCell id="6FXUCEme7YuGV_fSvKKb-25" value="ChatMessage" style="rounded=1;whiteSpace=wrap;html=1;" vertex="1" parent="1">
          <mxGeometry x="840" y="-495" width="120" height="60" as="geometry" />
        </mxCell>
        <mxCell id="6FXUCEme7YuGV_fSvKKb-32" value="chatId:user1_user2&lt;div&gt;senderId:user1&lt;/div&gt;&lt;div&gt;recipientId:user2&lt;/div&gt;&lt;div&gt;content:ni hao&lt;/div&gt;&lt;div&gt;timestamp:new date()&lt;/div&gt;" style="rounded=1;whiteSpace=wrap;html=1;" vertex="1" parent="1">
          <mxGeometry x="770" y="-380" width="150" height="100" as="geometry" />
        </mxCell>
        <mxCell id="6FXUCEme7YuGV_fSvKKb-34" value="chatId:user2_user1&lt;div&gt;senderId:user2&lt;/div&gt;&lt;div&gt;recipientId:user1&lt;/div&gt;&lt;div&gt;content:Hi there&lt;/div&gt;&lt;div&gt;timestamp:new date()&lt;/div&gt;" style="rounded=1;whiteSpace=wrap;html=1;" vertex="1" parent="1">
          <mxGeometry x="950" y="-380" width="150" height="100" as="geometry" />
        </mxCell>
        <mxCell id="6FXUCEme7YuGV_fSvKKb-46" value="" style="endArrow=classic;html=1;rounded=0;" edge="1" parent="1" source="6FXUCEme7YuGV_fSvKKb-6" target="6FXUCEme7YuGV_fSvKKb-17">
          <mxGeometry width="50" height="50" relative="1" as="geometry">
            <mxPoint x="480" y="-320" as="sourcePoint" />
            <mxPoint x="530" y="-370" as="targetPoint" />
          </mxGeometry>
        </mxCell>
        <mxCell id="6FXUCEme7YuGV_fSvKKb-47" value="" style="endArrow=classic;html=1;rounded=0;" edge="1" parent="1" source="6FXUCEme7YuGV_fSvKKb-6" target="6FXUCEme7YuGV_fSvKKb-23">
          <mxGeometry width="50" height="50" relative="1" as="geometry">
            <mxPoint x="480" y="-320" as="sourcePoint" />
            <mxPoint x="530" y="-370" as="targetPoint" />
          </mxGeometry>
        </mxCell>
        <mxCell id="6FXUCEme7YuGV_fSvKKb-49" value="" style="endArrow=classic;html=1;rounded=0;exitX=0.25;exitY=1;exitDx=0;exitDy=0;" edge="1" parent="1" source="6FXUCEme7YuGV_fSvKKb-25" target="6FXUCEme7YuGV_fSvKKb-32">
          <mxGeometry width="50" height="50" relative="1" as="geometry">
            <mxPoint x="760" y="-350" as="sourcePoint" />
            <mxPoint x="810" y="-400" as="targetPoint" />
          </mxGeometry>
        </mxCell>
        <mxCell id="6FXUCEme7YuGV_fSvKKb-50" value="" style="endArrow=classic;html=1;rounded=0;exitX=0.75;exitY=1;exitDx=0;exitDy=0;" edge="1" parent="1" source="6FXUCEme7YuGV_fSvKKb-25" target="6FXUCEme7YuGV_fSvKKb-34">
          <mxGeometry width="50" height="50" relative="1" as="geometry">
            <mxPoint x="480" y="-320" as="sourcePoint" />
            <mxPoint x="530" y="-370" as="targetPoint" />
          </mxGeometry>
        </mxCell>
        <mxCell id="6FXUCEme7YuGV_fSvKKb-51" value="MongoDB" style="shape=cylinder3;whiteSpace=wrap;html=1;boundedLbl=1;backgroundOutline=1;size=15;" vertex="1" parent="1">
          <mxGeometry x="690" y="-180" width="60" height="80" as="geometry" />
        </mxCell>
        <mxCell id="6FXUCEme7YuGV_fSvKKb-54" value="" style="endArrow=classic;startArrow=classic;html=1;rounded=0;" edge="1" parent="1" source="6FXUCEme7YuGV_fSvKKb-51" target="6FXUCEme7YuGV_fSvKKb-17">
          <mxGeometry width="50" height="50" relative="1" as="geometry">
            <mxPoint x="480" y="-320" as="sourcePoint" />
            <mxPoint x="530" y="-370" as="targetPoint" />
          </mxGeometry>
        </mxCell>
        <mxCell id="6FXUCEme7YuGV_fSvKKb-55" value="" style="endArrow=classic;startArrow=classic;html=1;rounded=0;" edge="1" parent="1" source="6FXUCEme7YuGV_fSvKKb-51" target="6FXUCEme7YuGV_fSvKKb-23">
          <mxGeometry width="50" height="50" relative="1" as="geometry">
            <mxPoint x="480" y="-320" as="sourcePoint" />
            <mxPoint x="530" y="-370" as="targetPoint" />
          </mxGeometry>
        </mxCell>
        <mxCell id="6FXUCEme7YuGV_fSvKKb-58" value="Create new if not exists" style="text;html=1;align=center;verticalAlign=middle;whiteSpace=wrap;rounded=0;" vertex="1" parent="1">
          <mxGeometry x="600" y="-270" width="90" height="30" as="geometry" />
        </mxCell>
        <mxCell id="6FXUCEme7YuGV_fSvKKb-62" value="" style="endArrow=classic;html=1;rounded=0;exitX=0.5;exitY=1;exitDx=0;exitDy=0;entryX=0.855;entryY=0;entryDx=0;entryDy=4.35;entryPerimeter=0;" edge="1" parent="1" source="6FXUCEme7YuGV_fSvKKb-32" target="6FXUCEme7YuGV_fSvKKb-51">
          <mxGeometry width="50" height="50" relative="1" as="geometry">
            <mxPoint x="480" y="-320" as="sourcePoint" />
            <mxPoint x="530" y="-370" as="targetPoint" />
          </mxGeometry>
        </mxCell>
        <mxCell id="6FXUCEme7YuGV_fSvKKb-63" value="" style="endArrow=classic;html=1;rounded=0;exitX=0.153;exitY=0.99;exitDx=0;exitDy=0;exitPerimeter=0;entryX=1;entryY=0;entryDx=0;entryDy=15;entryPerimeter=0;" edge="1" parent="1" source="6FXUCEme7YuGV_fSvKKb-34" target="6FXUCEme7YuGV_fSvKKb-51">
          <mxGeometry width="50" height="50" relative="1" as="geometry">
            <mxPoint x="480" y="-320" as="sourcePoint" />
            <mxPoint x="530" y="-370" as="targetPoint" />
          </mxGeometry>
        </mxCell>
      </root>
    </mxGraphModel>
  </diagram>
</mxfile>
